<svg id="svg" xmlns="http://www.w3.org/2000/svg" xmlns:xlink="http://www.w3.org/1999/xlink" width="400" height="360.5" viewBox="0, 0, 400,360.5"><g id="svgg"><path id="path0" d="M45.000 0.797 C 39.510 3.175,38.213 8.383,41.684 14.109 C 43.483 17.076,43.926 17.559,46.589 19.454 C 52.094 23.370,51.009 26.074,40.879 33.677 C 34.689 38.323,33.576 40.708,36.279 43.530 C 41.409 48.885,35.843 58.848,26.949 60.228 C 25.740 60.416,23.962 60.811,23.000 61.106 C 14.953 63.569,12.634 74.949,20.166 75.014 C 21.557 75.025,21.355 75.197,18.500 76.421 C 2.013 83.490,-4.157 97.813,2.848 112.750 C 6.744 121.057,10.517 132.940,14.198 148.500 C 14.881 151.387,16.127 156.675,16.968 160.250 C 20.551 175.497,24.107 186.433,29.894 200.000 C 34.135 209.941,42.705 227.414,46.448 233.750 C 46.935 234.575,47.902 236.269,48.596 237.515 C 53.233 245.840,64.326 262.626,70.024 269.938 C 72.240 272.783,75.786 277.390,77.902 280.176 C 85.233 289.828,97.807 301.713,110.750 311.227 C 111.850 312.036,112.862 312.826,113.000 312.984 C 114.912 315.182,128.220 323.875,138.378 329.563 C 149.014 335.519,155.715 338.438,168.169 342.542 C 191.997 350.394,203.741 352.401,247.500 356.096 C 266.910 357.735,292.768 356.643,315.560 353.222 C 318.205 352.825,321.841 352.500,323.641 352.500 C 328.455 352.500,333.236 351.427,342.750 348.213 C 352.649 344.868,358.533 344.303,363.925 346.182 C 366.556 347.098,366.623 347.097,367.925 346.134 C 371.482 343.505,374.877 342.377,383.500 340.963 C 398.768 338.458,399.980 337.685,399.993 330.443 C 400.005 323.605,398.429 322.938,382.686 323.122 L 371.750 323.250 368.875 321.838 C 367.294 321.062,366.000 320.218,366.000 319.963 C 366.000 319.040,364.718 319.561,363.250 321.080 C 359.240 325.230,355.903 325.682,347.706 323.187 C 341.404 321.269,342.386 321.350,329.143 321.655 C 322.090 321.818,322.029 320.604,328.704 312.973 C 335.942 304.698,335.581 300.007,327.705 300.002 C 322.390 299.999,319.629 301.783,309.882 311.522 L 301.514 319.883 297.632 319.163 C 257.859 311.792,218.408 290.906,197.215 266.000 C 172.323 236.747,165.188 226.179,159.557 210.229 C 158.396 206.941,157.143 203.463,156.771 202.500 C 154.819 197.445,151.949 186.324,149.996 176.250 C 147.685 164.326,146.006 149.056,144.252 124.000 C 143.838 118.088,143.239 109.875,142.922 105.750 C 141.005 80.816,142.902 79.029,163.917 85.968 C 178.032 90.629,185.086 89.219,180.987 82.556 C 177.669 77.163,170.705 72.810,157.750 68.031 C 153.900 66.611,149.441 64.898,147.842 64.225 C 146.243 63.551,144.330 62.994,143.592 62.986 C 141.434 62.965,136.111 60.440,131.059 57.041 C 125.631 53.390,122.784 52.030,119.617 51.575 C 117.404 51.257,117.339 51.195,116.657 48.750 C 115.309 43.922,113.213 42.778,102.000 40.749 C 88.907 38.380,84.803 36.291,86.283 32.749 C 89.144 25.900,86.333 23.900,74.089 24.077 C 60.882 24.267,59.504 22.962,62.292 12.899 C 64.495 4.944,60.151 -0.022,51.027 0.020 C 48.349 0.032,46.096 0.322,45.000 0.797 M54.954 3.390 C 59.919 7.097,58.450 9.724,51.691 9.227 C 46.226 8.824,45.131 9.092,44.856 10.899 C 44.725 11.757,44.623 11.429,44.577 10.000 C 44.385 4.080,50.587 0.130,54.954 3.390 M73.234 29.475 C 73.648 30.144,72.147 30.842,69.410 31.252 C 66.489 31.690,65.614 31.255,66.795 29.950 C 67.727 28.921,72.667 28.556,73.234 29.475 M75.030 41.244 C 80.240 42.824,83.712 44.379,84.931 45.677 L 85.961 46.773 83.906 46.577 L 81.851 46.381 82.208 48.065 C 83.109 52.320,83.143 53.103,82.449 53.542 C 78.637 55.956,70.499 49.084,69.243 42.390 C 68.842 40.251,69.271 39.299,70.426 39.764 C 70.879 39.947,72.951 40.613,75.030 41.244 M68.447 49.695 L 70.090 51.390 62.420 51.320 C 55.846 51.260,54.573 51.375,53.514 52.125 C 52.834 52.606,51.709 52.982,51.014 52.959 C 49.220 52.901,51.695 51.820,58.500 49.690 C 65.324 47.553,66.371 47.553,68.447 49.695 M98.209 53.303 C 99.307 53.725,99.197 55.115,97.938 56.715 L 96.876 58.066 98.107 59.408 C 99.574 61.006,101.500 63.760,101.500 64.260 C 101.500 64.975,98.684 62.791,96.241 60.181 C 93.470 57.220,92.314 56.632,94.045 59.064 C 96.627 62.689,95.122 69.568,91.674 69.903 C 89.769 70.088,87.216 68.055,85.333 64.854 C 82.352 59.787,79.363 58.979,79.096 63.167 C 78.965 65.222,78.815 65.529,78.096 65.216 C 70.289 61.813,62.169 62.274,47.500 66.951 C 43.893 68.101,43.050 68.237,43.775 67.551 C 44.280 67.073,50.274 65.124,55.250 63.820 C 56.900 63.387,61.258 62.239,64.934 61.267 C 68.611 60.295,72.049 59.500,72.576 59.500 C 73.103 59.500,77.295 58.393,81.892 57.040 C 88.790 55.011,95.440 53.261,97.084 53.044 C 97.268 53.020,97.774 53.137,98.209 53.303 M145.900 66.305 C 150.725 67.270,148.902 75.612,142.781 80.581 C 139.870 82.944,139.440 83.115,127.500 86.692 C 116.673 89.936,103.182 92.222,90.500 92.963 C 82.223 93.446,80.318 94.049,68.250 100.005 C 60.035 104.059,52.713 107.000,50.834 107.000 C 50.264 107.000,50.155 106.555,50.356 105.052 C 50.699 102.499,49.947 102.267,44.466 103.236 C 42.147 103.646,39.519 103.986,38.625 103.991 C 37.034 104.000,37.000 104.047,37.000 106.250 C 37.000 111.831,30.857 111.733,24.834 106.056 C 20.297 101.780,20.778 97.897,25.988 96.753 C 28.177 96.272,27.850 95.684,25.014 95.003 C 17.088 93.102,13.250 97.613,13.250 108.833 C 13.250 115.810,13.094 115.885,10.244 110.270 C 4.790 99.525,11.684 91.563,28.435 89.259 L 31.027 88.902 30.712 90.876 C 30.008 95.278,33.171 98.075,41.354 100.282 C 47.355 101.902,50.752 98.471,46.027 95.564 C 44.637 94.709,43.500 93.827,43.500 93.605 C 43.500 92.894,44.670 92.000,45.600 92.000 C 47.404 92.000,46.427 90.638,43.423 88.964 C 38.761 86.367,39.380 85.655,47.500 84.274 C 53.086 83.324,62.322 81.080,69.000 79.050 C 90.558 72.498,96.454 70.943,106.237 69.226 C 115.653 67.574,114.994 67.459,114.177 70.609 C 113.113 74.711,113.250 75.447,115.234 76.276 C 118.818 77.773,122.500 76.872,122.500 74.497 C 122.500 72.097,119.708 68.000,118.073 68.000 C 117.666 68.000,117.501 67.832,117.706 67.627 C 118.718 66.615,141.992 65.523,145.900 66.305 M126.635 71.789 C 124.971 73.525,124.479 74.402,124.596 75.414 C 124.810 77.273,126.144 77.109,126.721 75.153 C 127.115 73.814,127.500 73.504,129.094 73.234 C 133.161 72.547,134.455 69.500,130.680 69.500 C 129.134 69.500,128.467 69.877,126.635 71.789 M32.343 71.492 C 30.406 72.459,24.804 74.505,24.123 74.494 C 23.293 74.481,28.259 71.952,30.425 71.285 C 33.703 70.276,34.587 70.372,32.343 71.492 M85.250 76.764 C 84.975 76.866,83.441 77.319,81.841 77.770 C 80.240 78.222,78.186 79.245,77.275 80.045 C 76.363 80.845,75.394 81.500,75.120 81.500 C 74.273 81.500,73.467 82.831,73.795 83.687 C 74.295 84.990,75.500 84.626,75.809 83.078 C 76.045 81.901,76.299 81.696,77.288 81.885 C 77.945 82.011,79.951 81.525,81.747 80.807 C 85.509 79.300,86.828 79.203,89.108 80.263 C 92.082 81.646,99.975 78.571,97.500 76.993 C 96.802 76.548,86.361 76.353,85.250 76.764 M173.750 78.945 C 176.626 80.272,178.201 82.130,177.802 83.722 C 177.407 85.294,176.811 85.355,176.157 83.889 C 175.885 83.279,174.347 81.976,172.741 80.994 C 168.245 78.248,168.985 76.746,173.750 78.945 M64.100 85.100 C 63.097 86.103,63.421 87.344,65.038 88.706 C 67.374 90.671,72.500 90.248,72.500 88.090 C 72.500 85.598,65.938 83.262,64.100 85.100 M57.375 85.786 C 55.754 86.665,55.624 87.313,56.981 87.744 C 58.315 88.167,60.000 87.184,60.000 85.982 C 60.000 84.821,59.256 84.765,57.375 85.786 M58.088 89.627 C 57.126 90.090,55.000 93.259,55.000 94.230 C 55.000 94.379,55.844 94.501,56.875 94.501 C 58.145 94.502,59.719 95.089,61.750 96.317 C 66.843 99.398,68.908 99.494,68.277 96.621 C 67.336 92.338,61.203 88.128,58.088 89.627 M136.861 93.409 C 139.984 97.126,140.159 110.172,137.221 120.216 C 136.290 123.400,136.309 123.628,137.472 123.259 C 140.076 122.432,141.399 136.509,139.797 148.000 C 139.377 151.014,139.405 151.200,140.184 150.554 C 142.451 148.675,143.150 157.116,141.188 162.677 C 140.184 165.521,140.272 166.062,141.651 165.538 C 143.304 164.909,144.500 165.754,144.500 167.550 C 144.500 169.477,143.049 172.389,142.518 171.529 C 140.870 168.863,138.605 172.795,138.141 179.125 C 137.809 183.661,138.494 184.280,139.730 180.560 C 140.756 177.470,143.653 173.995,144.510 174.827 C 144.836 175.144,145.391 176.832,145.741 178.577 C 148.057 190.104,148.672 192.777,150.038 197.250 C 152.706 205.993,154.025 210.681,154.515 213.173 C 154.778 214.506,155.579 216.294,156.296 217.146 L 157.599 218.695 155.925 220.084 C 155.004 220.848,154.107 221.479,153.932 221.487 C 153.374 221.510,152.000 224.853,152.000 226.188 C 152.000 227.352,152.143 227.446,153.506 227.174 C 157.055 226.464,161.657 231.784,163.192 238.371 L 163.864 241.250 164.212 238.250 C 164.803 233.164,165.030 232.977,167.110 235.871 C 168.103 237.254,169.848 239.134,170.987 240.049 C 172.125 240.965,173.862 243.072,174.846 244.732 C 181.090 255.269,186.280 262.619,190.745 267.250 C 196.405 273.119,196.743 273.624,195.913 274.953 C 195.092 276.268,196.022 278.120,199.813 282.716 C 207.095 291.544,219.766 298.694,235.422 302.809 C 237.736 303.418,238.571 304.021,241.672 307.331 C 249.299 315.473,257.380 319.239,265.240 318.316 C 267.763 318.019,267.852 318.050,267.643 319.143 C 267.211 321.402,269.900 322.674,281.688 325.784 C 292.537 328.647,292.765 328.911,286.178 330.973 L 282.606 332.091 278.178 330.991 C 275.743 330.385,273.035 329.595,272.161 329.235 C 271.287 328.875,269.262 328.421,267.661 328.225 C 264.416 327.828,262.475 327.136,254.641 323.580 C 239.546 316.730,232.083 316.116,223.913 321.053 C 219.659 323.623,219.348 323.407,222.238 319.896 C 226.467 314.759,223.991 315.161,218.402 320.519 C 213.855 324.877,212.498 325.028,210.134 321.435 C 206.375 315.723,203.596 314.066,200.297 315.570 C 199.226 316.057,198.576 315.905,195.773 314.512 C 192.131 312.700,191.795 311.973,194.000 310.670 C 195.896 309.550,195.906 309.000,194.030 309.000 C 191.880 309.000,191.750 308.252,193.519 306.051 C 196.124 302.809,195.626 302.301,189.495 301.946 C 176.217 301.178,169.436 299.025,166.545 294.662 C 163.912 290.686,165.410 289.859,172.263 291.503 L 175.051 292.172 173.719 293.234 C 171.116 295.310,173.429 297.808,179.085 299.030 C 185.997 300.523,194.088 299.054,190.253 297.001 C 189.567 296.634,187.823 294.972,186.378 293.306 C 182.239 288.538,177.496 283.881,174.451 281.595 C 172.257 279.949,160.364 273.000,159.739 273.000 C 159.664 273.000,156.936 271.741,153.676 270.202 C 150.417 268.663,145.725 266.549,143.250 265.504 C 131.845 260.690,127.046 258.307,124.885 256.386 L 123.250 254.933 124.884 255.206 C 127.332 255.614,133.744 258.403,136.405 260.216 C 139.509 262.332,142.570 263.500,145.010 263.500 C 153.934 263.500,146.638 247.213,137.079 245.795 C 134.064 245.348,131.568 243.967,128.164 240.860 C 126.561 239.398,124.639 237.736,123.892 237.168 L 122.535 236.134 125.304 235.808 C 135.505 234.609,135.573 228.743,125.512 218.040 C 118.854 210.958,118.213 211.131,121.774 219.053 C 124.487 225.089,124.980 227.000,123.825 227.000 C 122.866 227.000,121.895 225.224,120.454 220.834 C 118.609 215.213,109.506 209.008,109.497 213.365 C 109.494 215.145,108.597 218.381,108.007 218.746 C 107.756 218.901,107.146 217.885,106.650 216.489 C 105.889 214.342,105.596 213.998,104.750 214.262 C 99.082 216.032,95.711 213.299,95.960 207.137 C 96.151 202.389,94.424 199.359,89.000 194.923 C 85.945 192.425,82.915 189.419,83.182 189.151 C 83.248 189.085,84.640 189.581,86.276 190.254 C 96.084 194.286,98.233 189.680,91.014 180.099 C 86.796 174.501,86.512 174.436,82.761 178.217 C 76.277 184.753,74.837 183.738,76.256 173.629 C 76.665 170.712,77.000 168.028,77.000 167.663 C 77.000 166.818,75.677 166.798,75.150 167.636 C 74.930 167.985,74.137 168.540,73.389 168.869 C 71.568 169.668,71.248 171.278,71.933 176.180 C 72.245 178.419,72.501 180.514,72.501 180.837 C 72.500 181.232,71.486 181.395,69.392 181.337 C 64.390 181.197,64.711 182.076,72.319 189.348 C 77.345 194.152,78.504 195.496,77.626 195.498 C 77.008 195.499,75.631 196.287,74.566 197.250 C 71.104 200.378,69.738 199.503,67.844 192.944 C 65.904 186.229,63.736 183.257,59.340 181.286 L 56.931 180.206 58.229 179.511 C 62.061 177.460,59.749 173.450,51.592 168.000 L 50.470 167.250 51.610 165.993 C 52.237 165.301,53.836 163.445,55.164 161.868 C 58.573 157.817,60.168 157.894,63.472 162.271 C 65.824 165.386,65.857 165.500,64.414 165.500 C 60.401 165.500,60.522 172.997,64.611 177.665 C 65.543 178.729,66.212 179.040,67.301 178.915 L 68.750 178.750 69.150 174.000 C 70.170 161.895,68.007 157.527,59.404 154.315 C 57.186 153.487,56.986 153.486,55.750 154.296 C 54.502 155.113,54.381 155.107,53.096 154.154 C 48.987 151.107,48.248 144.290,52.132 145.265 C 53.258 145.548,53.389 145.398,53.696 143.474 C 54.381 139.191,55.980 138.099,62.425 137.511 C 64.903 137.285,66.791 136.877,66.903 136.542 C 67.009 136.224,67.637 135.320,68.298 134.534 C 70.113 132.377,69.851 130.491,67.000 125.202 C 64.125 119.870,63.832 117.801,65.703 116.044 C 66.728 115.082,67.070 115.002,68.018 115.510 C 73.592 118.493,88.889 110.589,85.023 106.723 C 84.721 106.421,86.379 106.248,89.550 106.248 C 95.012 106.250,96.019 105.721,96.751 102.465 L 97.040 101.180 102.395 102.537 C 111.974 104.965,114.327 104.466,109.250 101.085 C 105.735 98.744,105.662 98.831,112.998 96.659 C 115.499 95.918,123.931 94.500,125.835 94.500 C 127.329 94.500,128.595 94.145,129.568 93.451 C 132.683 91.233,135.022 91.220,136.861 93.409 M133.250 93.500 C 132.885 94.090,133.358 95.000,134.030 95.000 C 134.288 95.000,134.500 94.550,134.500 94.000 C 134.500 92.945,133.773 92.654,133.250 93.500 M130.633 107.601 C 124.986 114.530,126.659 132.841,132.414 127.086 C 134.864 124.636,138.403 112.693,137.069 111.377 C 136.310 110.629,135.117 111.953,134.705 114.000 C 134.107 116.975,132.788 121.072,132.339 121.349 C 131.738 121.721,132.267 117.297,133.248 113.750 C 134.479 109.297,132.687 105.082,130.633 107.601 M69.750 109.000 C 69.580 109.275,69.103 109.500,68.691 109.500 C 68.278 109.500,68.080 109.275,68.250 109.000 C 68.420 108.725,68.897 108.500,69.309 108.500 C 69.722 108.500,69.920 108.725,69.750 109.000 M22.884 112.500 C 22.207 113.584,21.989 113.656,20.791 113.197 C 19.198 112.585,20.169 111.720,22.629 111.558 C 23.386 111.508,23.421 111.640,22.884 112.500 M77.088 119.334 C 77.332 120.588,78.500 120.760,78.500 119.542 C 78.500 118.927,78.177 118.500,77.713 118.500 C 77.248 118.500,76.993 118.840,77.088 119.334 M59.638 121.171 C 61.053 121.762,61.500 122.237,61.500 123.147 C 61.500 126.166,55.230 128.363,51.821 126.538 C 49.692 125.399,50.268 125.000,54.042 125.000 C 58.720 125.000,58.404 124.306,52.743 122.151 C 50.293 121.218,48.167 120.322,48.019 120.160 C 47.440 119.527,57.877 120.435,59.638 121.171 M80.500 122.664 C 80.500 122.754,81.077 124.249,81.783 125.986 C 82.651 128.121,83.022 129.873,82.928 131.394 C 82.768 134.006,83.921 135.253,89.008 137.964 C 93.586 140.404,94.725 139.930,91.931 136.748 C 90.423 135.031,90.399 134.934,91.306 134.260 C 92.665 133.250,91.818 132.137,87.979 129.888 C 85.525 128.451,84.414 127.396,83.110 125.263 C 81.735 123.015,80.500 121.785,80.500 122.664 M91.100 125.100 C 90.109 126.091,90.415 127.830,91.732 128.692 C 93.653 129.951,94.500 129.729,94.500 127.967 C 94.500 125.046,92.685 123.515,91.100 125.100 M41.349 125.829 C 41.658 126.633,39.531 129.000,38.500 129.000 C 37.201 129.000,35.290 126.605,35.952 125.807 C 36.889 124.678,40.914 124.694,41.349 125.829 M47.500 130.803 C 47.500 131.331,47.228 131.503,46.709 131.303 C 46.274 131.137,45.712 131.000,45.459 131.000 C 45.207 131.000,45.000 130.775,45.000 130.500 C 45.000 130.225,45.563 130.000,46.250 130.000 C 47.065 130.000,47.500 130.280,47.500 130.803 M42.500 133.500 C 42.500 134.167,42.167 134.500,41.500 134.500 C 40.367 134.500,40.219 133.981,41.100 133.100 C 41.981 132.219,42.500 132.367,42.500 133.500 M122.500 133.726 C 122.500 134.760,123.581 137.000,124.080 137.000 C 124.638 137.000,124.610 136.464,123.951 134.575 C 123.386 132.955,122.500 132.437,122.500 133.726 M78.205 138.950 C 78.678 139.473,79.894 140.051,80.908 140.235 C 81.921 140.418,84.405 141.348,86.428 142.300 C 95.063 146.366,98.562 145.335,90.314 141.156 C 84.608 138.264,76.198 136.733,78.205 138.950 M124.500 139.209 C 124.500 140.211,126.316 144.327,126.924 144.703 C 128.067 145.410,127.962 143.859,126.691 141.263 C 125.378 138.582,124.500 137.759,124.500 139.209 M74.000 140.695 C 74.000 143.100,77.081 146.661,80.045 147.682 C 81.533 148.195,84.366 149.264,86.340 150.057 C 94.395 153.294,94.200 150.625,85.960 144.842 C 79.084 140.017,74.000 138.254,74.000 140.695 M38.904 142.066 C 41.956 142.801,42.999 143.698,41.645 144.423 C 40.570 144.998,35.500 143.018,35.500 142.023 C 35.500 141.360,36.004 141.367,38.904 142.066 M67.769 143.969 C 66.773 145.581,74.373 152.820,77.716 153.444 C 80.341 153.935,81.510 153.742,81.484 152.822 C 81.415 150.321,68.854 142.214,67.769 143.969 M128.000 148.220 C 128.000 148.924,128.225 149.500,128.500 149.500 C 128.775 149.500,129.000 149.063,129.000 148.530 C 129.000 147.996,128.775 147.420,128.500 147.250 C 128.216 147.075,128.000 147.495,128.000 148.220 M25.179 148.625 C 26.163 150.201,26.642 152.500,25.987 152.500 C 25.103 152.500,23.000 150.111,23.000 149.106 C 23.000 147.230,24.150 146.976,25.179 148.625 M39.462 148.794 C 41.645 150.632,41.526 151.710,39.188 151.271 C 35.844 150.644,34.518 149.122,36.375 148.040 C 37.613 147.319,37.747 147.351,39.462 148.794 M66.000 148.059 C 66.000 148.399,66.825 149.875,67.833 151.339 C 70.144 154.693,69.790 155.058,66.424 152.791 C 62.382 150.070,60.947 150.379,63.233 153.478 C 69.490 161.958,74.167 164.465,76.153 160.403 C 77.756 157.123,74.841 151.000,71.676 151.000 C 71.246 151.000,70.074 150.363,69.072 149.584 C 66.525 147.605,66.000 147.344,66.000 148.059 M38.298 155.068 L 39.250 156.137 37.500 155.255 C 35.238 154.115,35.132 154.000,36.339 154.000 C 36.892 154.000,37.774 154.481,38.298 155.068 M82.693 158.092 C 83.061 159.930,84.146 161.291,85.532 161.653 C 87.008 162.039,86.747 160.527,84.964 158.364 C 83.057 156.051,82.266 155.956,82.693 158.092 M78.518 158.228 C 77.762 159.139,78.253 160.000,79.530 160.000 C 80.231 160.000,80.500 159.654,80.500 158.750 C 80.500 157.356,79.467 157.084,78.518 158.228 M134.699 158.777 C 134.222 160.677,134.191 165.354,134.652 165.817 C 135.439 166.608,135.985 164.697,135.992 161.125 C 136.000 157.523,135.322 156.293,134.699 158.777 M112.754 158.494 C 112.556 158.814,112.548 160.309,112.737 161.816 C 113.185 165.404,114.279 165.183,114.178 161.526 C 114.104 158.847,113.427 157.405,112.754 158.494 M121.224 160.734 C 119.411 165.075,120.547 175.960,123.113 178.822 C 123.641 179.411,124.451 180.632,124.912 181.534 C 126.750 185.133,129.006 184.415,129.969 179.926 C 130.728 176.387,130.639 175.612,129.433 175.229 C 128.426 174.909,128.384 174.671,128.686 171.045 C 129.041 166.784,128.616 165.683,126.512 165.410 C 125.487 165.278,125.213 164.889,124.917 163.148 C 124.180 158.810,122.490 157.705,121.224 160.734 M137.938 160.375 C 137.125 162.452,136.723 170.397,137.465 169.699 C 138.917 168.336,140.245 159.000,138.988 159.000 C 138.706 159.000,138.233 159.619,137.938 160.375 M31.599 166.353 C 34.438 171.783,36.500 177.472,36.500 179.873 L 36.500 181.687 35.013 180.263 C 33.726 179.029,27.983 163.519,27.997 161.314 C 28.004 160.238,29.484 162.308,31.599 166.353 M90.161 164.625 C 90.857 172.808,96.733 186.000,99.683 186.000 C 100.037 186.000,100.854 185.438,101.500 184.750 C 103.039 183.112,103.481 183.167,105.493 185.243 C 107.570 187.386,107.649 187.321,106.719 184.229 C 105.974 181.754,106.437 180.500,108.096 180.500 C 110.403 180.500,106.518 174.544,99.663 167.574 C 93.908 161.722,92.763 162.592,96.141 170.250 C 99.526 177.926,99.010 178.313,95.142 171.000 C 94.051 168.938,92.617 165.844,91.957 164.125 C 90.369 159.997,89.782 160.160,90.161 164.625 M28.601 170.441 C 29.453 171.921,30.735 174.509,31.451 176.191 C 32.167 177.874,33.498 180.325,34.410 181.639 C 36.469 184.607,37.888 187.824,39.971 194.250 C 40.862 197.000,42.392 200.713,43.370 202.500 C 45.099 205.662,45.110 205.716,43.778 204.500 C 40.383 201.400,37.136 195.762,32.980 185.750 C 31.496 182.175,29.292 177.338,28.081 175.000 C 25.957 170.899,23.978 165.928,24.020 164.797 C 24.052 163.958,26.868 167.428,28.601 170.441 M79.213 168.770 C 78.891 170.490,79.895 172.500,81.077 172.500 C 81.562 172.500,81.651 168.976,81.197 167.791 C 80.661 166.394,79.557 166.939,79.213 168.770 M86.994 172.010 C 86.411 173.101,86.597 173.637,88.162 175.375 C 90.197 177.636,91.423 176.426,90.514 173.052 C 89.882 170.705,87.992 170.146,86.994 172.010 M141.070 180.514 C 140.545 182.021,140.755 183.500,141.495 183.500 C 141.955 183.500,142.484 181.711,142.493 180.125 C 142.503 178.515,141.690 178.737,141.070 180.514 M58.279 185.766 C 57.247 186.547,56.080 186.691,54.794 186.198 C 53.362 185.648,54.520 185.000,56.905 185.016 C 59.076 185.031,59.178 185.086,58.279 185.766 M77.423 187.224 C 77.533 187.794,77.353 188.034,76.923 187.891 C 76.553 187.768,76.172 187.266,76.077 186.776 C 75.967 186.206,76.147 185.966,76.577 186.109 C 76.947 186.232,77.328 186.734,77.423 187.224 M140.000 188.000 C 140.000 188.825,140.225 189.500,140.500 189.500 C 140.775 189.500,141.000 188.825,141.000 188.000 C 141.000 187.175,140.775 186.500,140.500 186.500 C 140.225 186.500,140.000 187.175,140.000 188.000 M143.370 189.603 C 143.081 191.505,143.830 193.370,144.580 192.620 C 145.225 191.975,144.908 188.379,144.185 188.142 C 143.870 188.039,143.509 188.687,143.370 189.603 M87.764 197.701 C 88.197 198.362,89.070 201.343,89.704 204.326 C 91.047 210.646,91.507 211.893,92.994 213.250 C 97.188 217.077,100.609 222.065,99.507 222.746 C 98.691 223.250,97.257 222.672,89.000 218.518 C 84.737 216.373,79.450 213.882,77.250 212.983 C 72.863 211.191,71.881 210.597,72.266 209.973 C 72.407 209.746,71.823 208.568,70.968 207.356 C 66.955 201.663,69.471 200.411,77.579 204.064 C 83.603 206.778,86.808 207.189,87.280 205.308 C 87.720 203.554,87.161 200.789,85.972 198.839 C 84.408 196.272,86.117 195.187,87.764 197.701 M38.671 203.625 C 41.688 208.325,43.414 211.732,45.321 216.750 C 47.038 221.270,53.457 231.017,56.022 233.000 C 57.439 234.096,62.082 240.990,62.743 242.979 C 63.340 244.777,64.026 245.744,65.235 246.491 C 69.106 248.883,71.955 253.266,74.018 260.000 C 76.472 268.011,80.110 272.314,84.057 271.873 C 85.314 271.733,87.149 273.946,90.000 279.038 C 92.058 282.715,94.869 285.000,97.335 285.000 C 98.879 285.000,98.993 285.103,98.707 286.243 C 98.311 287.820,106.479 296.844,108.391 296.942 C 112.943 297.175,122.763 305.451,120.808 307.406 C 120.183 308.031,119.612 307.979,116.426 307.012 C 110.761 305.291,109.237 304.294,103.804 298.752 C 101.024 295.917,96.909 292.220,94.660 290.537 C 88.203 285.708,79.835 276.096,74.750 267.670 C 70.283 260.267,69.510 258.756,69.770 257.939 C 70.125 256.819,69.138 254.871,68.348 255.134 C 67.203 255.516,47.898 226.188,43.069 216.731 C 39.511 209.762,35.171 199.500,35.783 199.500 C 35.915 199.500,37.214 201.356,38.671 203.625 M103.500 205.498 C 103.500 206.564,104.534 208.000,105.301 208.000 C 106.612 208.000,105.981 205.283,104.625 205.090 C 104.006 205.002,103.500 205.186,103.500 205.498 M118.000 207.000 C 118.000 207.275,118.450 207.950,119.000 208.500 C 119.550 209.050,120.225 209.500,120.500 209.500 C 121.315 209.500,121.070 208.219,120.086 207.327 C 119.065 206.404,118.000 206.236,118.000 207.000 M148.187 210.735 C 147.537 212.428,150.205 220.500,151.414 220.500 C 152.014 220.500,152.484 218.746,152.493 216.481 C 152.507 212.924,149.094 208.370,148.187 210.735 M70.250 215.000 C 70.080 215.275,69.617 215.500,69.220 215.500 C 68.824 215.500,68.500 215.275,68.500 215.000 C 68.500 214.725,68.963 214.500,69.530 214.500 C 70.096 214.500,70.420 214.725,70.250 215.000 M71.281 227.075 L 72.750 228.650 71.087 227.700 C 68.999 226.508,68.087 225.500,69.095 225.500 C 69.490 225.500,70.474 226.209,71.281 227.075 M118.343 226.587 C 119.810 227.966,119.824 228.664,118.375 228.232 C 116.597 227.701,114.940 226.501,115.264 225.978 C 115.761 225.173,117.125 225.443,118.343 226.587 M103.016 229.788 C 110.680 231.986,110.744 232.047,107.077 233.637 C 102.877 235.458,102.619 236.440,105.788 238.530 L 107.250 239.493 105.155 239.497 C 101.332 239.503,101.720 241.000,106.264 243.775 C 109.130 245.526,109.498 245.927,109.499 247.313 C 109.500 248.550,109.974 249.280,111.774 250.813 C 114.751 253.349,115.559 254.823,114.839 256.403 C 114.342 257.495,114.535 257.819,117.022 260.060 C 120.648 263.328,116.316 261.749,109.245 257.225 C 107.748 256.268,103.860 254.146,100.604 252.512 C 94.680 249.537,92.000 247.815,92.000 246.985 C 92.000 246.742,93.406 247.208,95.125 248.021 C 101.483 251.029,101.331 249.525,94.741 244.235 C 90.807 241.077,90.522 240.735,91.700 240.592 C 93.597 240.361,93.308 239.425,90.541 236.836 C 87.026 233.549,86.978 233.361,89.773 233.780 C 92.318 234.161,92.367 234.082,91.253 231.375 C 90.772 230.206,91.801 230.236,94.558 231.470 C 97.316 232.705,97.590 232.406,95.591 230.344 C 92.689 227.349,94.136 227.241,103.016 229.788 M155.458 231.861 C 154.846 233.470,155.561 235.500,156.739 235.500 C 157.319 235.500,157.500 234.905,157.500 233.000 C 157.500 230.140,156.355 229.501,155.458 231.861 M81.125 234.100 C 82.699 235.208,82.896 235.618,81.625 235.138 C 80.371 234.664,77.500 232.944,77.500 232.667 C 77.500 232.237,79.733 233.119,81.125 234.100 M167.000 246.639 C 167.000 248.607,168.974 250.978,170.625 250.992 C 171.999 251.004,171.678 249.237,169.948 247.267 C 168.164 245.235,167.000 244.987,167.000 246.639 M174.000 256.970 C 174.000 258.054,174.225 259.080,174.500 259.250 C 174.805 259.439,175.000 258.672,175.000 257.280 C 175.000 256.026,174.775 255.000,174.500 255.000 C 174.225 255.000,174.000 255.887,174.000 256.970 M177.445 260.625 C 177.183 263.582,179.126 267.807,182.284 271.151 C 184.757 273.768,186.000 274.150,186.000 272.291 C 186.000 268.356,177.756 257.114,177.445 260.625 M108.000 263.948 C 108.897 264.198,109.038 264.375,108.500 264.576 C 108.088 264.730,106.963 264.568,106.000 264.216 C 104.015 263.490,105.596 263.278,108.000 263.948 M129.631 266.624 C 131.491 267.466,132.918 268.249,132.801 268.365 C 132.271 268.896,126.128 266.741,125.000 265.629 L 123.750 264.397 125.000 264.746 C 125.688 264.938,127.772 265.783,129.631 266.624 M117.500 267.542 C 118.876 268.327,116.781 268.075,114.932 267.235 L 113.250 266.469 115.000 266.792 C 115.963 266.969,117.088 267.307,117.500 267.542 M113.368 270.722 C 115.257 271.120,118.365 272.036,120.276 272.758 C 122.187 273.480,125.213 274.529,127.000 275.087 C 128.787 275.646,130.650 276.458,131.139 276.892 C 134.377 279.764,120.499 281.010,114.952 278.344 C 113.413 277.605,111.700 277.000,111.146 277.000 C 109.767 277.000,105.500 272.943,105.500 271.632 C 105.500 269.840,107.870 269.566,113.368 270.722 M137.474 273.841 C 138.973 274.496,140.905 275.571,141.768 276.229 C 142.630 276.888,144.647 277.768,146.249 278.187 C 151.049 279.440,151.615 280.673,147.250 280.370 C 143.631 280.119,138.500 278.254,137.678 276.892 C 137.443 276.501,136.193 275.463,134.901 274.584 C 130.618 271.673,131.764 271.342,137.474 273.841 M149.550 273.076 C 150.485 273.394,151.813 274.038,152.500 274.509 C 153.188 274.980,155.156 275.610,156.875 275.908 C 161.152 276.650,162.512 277.465,159.500 277.482 C 155.860 277.502,151.767 276.656,148.867 275.284 C 147.378 274.579,145.280 273.681,144.205 273.287 L 142.250 272.570 145.050 272.535 C 146.591 272.516,148.616 272.759,149.550 273.076 M205.785 280.056 C 206.161 280.666,205.039 281.583,204.399 281.188 C 204.179 281.052,204.000 280.617,204.000 280.220 C 204.000 279.372,205.288 279.253,205.785 280.056 M148.595 284.800 C 152.878 286.323,154.838 287.717,151.993 287.215 C 149.014 286.689,147.307 286.011,145.750 284.735 C 143.871 283.194,144.095 283.199,148.595 284.800 M213.443 287.681 C 213.901 288.233,213.770 288.317,212.754 288.123 C 212.064 287.991,211.500 287.685,211.500 287.442 C 211.500 286.758,212.811 286.920,213.443 287.681 M146.050 293.209 C 150.631 294.599,156.276 297.954,154.085 297.984 C 152.171 298.010,146.359 295.492,144.760 293.943 C 143.040 292.278,143.020 292.289,146.050 293.209 M157.486 293.480 C 157.890 293.736,158.076 294.091,157.898 294.268 C 157.461 294.706,155.500 294.050,155.500 293.466 C 155.500 292.871,156.534 292.879,157.486 293.480 M139.925 295.779 C 140.615 296.388,139.292 296.884,138.248 296.408 C 136.785 295.742,137.131 294.820,138.667 295.292 C 139.263 295.475,139.829 295.694,139.925 295.779 M330.108 304.092 C 329.783 304.417,329.395 304.562,329.247 304.413 C 329.098 304.265,329.124 303.758,329.305 303.288 C 329.537 302.682,329.788 302.588,330.166 302.966 C 330.545 303.345,330.528 303.672,330.108 304.092 M235.625 304.625 C 235.940 305.571,237.500 305.706,237.500 304.787 C 237.500 304.323,237.073 304.000,236.458 304.000 C 235.847 304.000,235.503 304.258,235.625 304.625 M138.000 305.416 C 138.000 306.176,135.591 307.143,134.659 306.757 C 133.870 306.430,133.948 306.292,135.250 305.713 C 136.995 304.936,138.000 304.828,138.000 305.416 M156.500 306.000 C 156.500 306.637,154.485 306.637,153.500 306.000 C 152.942 305.639,153.230 305.513,154.625 305.508 C 155.656 305.503,156.500 305.725,156.500 306.000 M166.125 308.196 C 167.602 309.317,167.208 310.124,165.375 309.731 C 163.168 309.257,161.912 308.548,162.266 307.975 C 162.692 307.284,165.106 307.423,166.125 308.196 M190.500 310.237 C 190.500 310.603,187.632 312.001,186.900 311.992 C 185.540 311.976,184.669 311.053,185.500 310.508 C 186.248 310.017,190.500 309.787,190.500 310.237 M314.000 311.439 C 314.000 312.208,312.566 313.100,311.946 312.717 C 311.516 312.451,311.606 312.159,312.270 311.674 C 313.330 310.898,314.000 310.807,314.000 311.439 M139.555 319.019 C 141.218 319.579,143.509 320.625,144.647 321.343 C 148.723 323.916,161.394 329.931,169.250 333.022 C 173.650 334.753,181.863 338.010,187.500 340.260 C 193.137 342.509,198.762 344.487,200.000 344.655 C 201.238 344.823,206.863 345.672,212.500 346.541 C 223.234 348.197,239.654 348.766,244.000 347.634 C 245.331 347.287,246.244 347.386,247.816 348.046 C 251.856 349.743,257.059 350.164,265.641 349.487 C 273.765 348.847,278.122 349.030,281.951 350.174 L 284.152 350.831 281.201 351.431 C 273.173 353.064,251.298 353.350,240.515 351.963 C 238.444 351.697,234.838 351.270,232.500 351.013 C 226.999 350.410,222.999 349.863,210.500 348.004 C 204.863 347.166,198.714 346.258,196.836 345.986 C 188.805 344.825,180.181 342.550,171.000 339.172 C 166.162 337.391,153.420 332.217,152.021 331.463 C 151.597 331.235,149.338 330.148,147.000 329.046 C 142.252 326.810,140.233 325.682,135.500 322.622 C 131.093 319.773,132.255 319.972,137.750 323.007 C 150.442 330.016,163.567 335.450,162.888 333.414 C 162.667 332.751,160.813 331.750,152.250 327.671 C 144.569 324.012,134.566 318.000,136.159 318.000 C 136.364 318.000,137.892 318.458,139.555 319.019 M154.332 319.784 C 154.826 321.071,153.829 321.574,152.554 320.681 C 151.648 320.047,151.544 319.779,152.074 319.444 C 153.113 318.785,154.000 318.919,154.332 319.784 M242.971 323.715 C 244.583 325.658,244.226 329.698,242.292 331.396 C 240.017 333.393,239.094 333.418,238.425 331.500 C 237.772 329.627,236.436 329.544,234.409 331.250 C 232.548 332.816,232.000 332.825,232.000 331.288 C 232.000 327.894,241.180 321.557,242.971 323.715 M232.250 325.303 C 230.969 326.290,229.500 327.099,229.500 326.817 C 229.500 326.563,232.629 324.513,233.000 324.524 C 233.137 324.528,232.800 324.879,232.250 325.303 M323.000 327.309 C 326.163 327.718,330.663 328.337,333.000 328.686 L 337.250 329.320 335.500 330.261 C 333.454 331.360,329.631 331.460,313.500 330.834 C 301.085 330.352,300.800 330.309,301.500 328.999 C 303.104 326.004,309.189 325.525,323.000 327.309 M254.000 326.906 C 254.000 327.918,247.730 332.701,246.997 332.248 C 246.263 331.794,246.394 329.711,247.198 329.043 C 249.329 327.275,254.000 325.808,254.000 326.906 M365.000 327.720 C 365.000 328.517,364.093 329.259,363.655 328.822 C 363.244 328.410,363.886 327.000,364.484 327.000 C 364.768 327.000,365.000 327.324,365.000 327.720 M345.992 328.875 C 345.988 329.081,345.775 329.581,345.520 329.986 C 344.943 330.896,344.268 330.327,344.673 329.272 C 344.972 328.492,346.007 328.181,345.992 328.875 M389.440 328.953 C 391.075 329.988,376.393 331.262,373.721 330.317 L 371.750 329.620 373.500 329.308 C 377.278 328.634,388.542 328.384,389.440 328.953 M172.463 330.705 C 173.364 331.791,172.211 332.209,170.394 331.456 C 169.033 330.892,168.962 330.772,169.799 330.443 C 171.244 329.876,171.822 329.933,172.463 330.705 M260.441 333.087 C 258.338 334.749,257.500 335.110,257.500 334.355 C 257.500 333.589,259.358 331.752,260.500 331.389 C 261.749 330.991,261.711 332.084,260.441 333.087 M253.000 332.462 C 253.000 333.530,250.351 336.000,249.206 336.000 C 247.114 336.000,248.075 334.510,251.250 332.833 C 253.059 331.877,253.000 331.889,253.000 332.462 M213.500 332.880 C 213.500 333.089,213.050 333.540,212.500 333.884 C 211.405 334.568,211.144 334.056,212.100 333.100 C 212.777 332.423,213.500 332.309,213.500 332.880 M191.832 336.750 C 197.191 337.988,202.206 339.000,202.976 339.000 C 204.713 339.000,210.000 341.288,210.000 342.041 C 210.000 343.676,193.216 339.943,186.250 336.758 C 184.325 335.878,182.412 335.028,182.000 334.869 C 180.159 334.158,182.762 334.656,191.832 336.750 M269.795 335.450 C 269.062 336.260,267.000 337.221,267.000 336.752 C 267.000 336.571,270.155 334.521,270.452 334.508 C 270.564 334.504,270.268 334.928,269.795 335.450 M263.123 336.608 C 261.912 337.818,261.374 338.074,260.941 337.641 C 260.508 337.208,260.784 336.812,262.058 336.035 C 264.523 334.532,264.962 334.769,263.123 336.608 M276.743 335.511 C 276.384 336.093,271.186 340.000,270.771 340.000 C 270.161 340.000,270.559 338.603,271.375 337.882 C 273.256 336.220,277.450 334.368,276.743 335.511 M293.000 350.447 C 293.000 351.105,291.625 351.517,290.662 351.147 C 289.911 350.859,289.924 350.785,290.787 350.448 C 292.131 349.921,293.000 349.920,293.000 350.447 " stroke="none" fill="#000000" fill-rule="evenodd"></path></g></svg>