<?xml version="1.0" encoding="UTF-8"?>
<svg version="1.1" xmlns="http://www.w3.org/2000/svg" width="512" height="512">
<path d="M0 0 C6.93530011 5.68491697 13.26222574 12.11364976 19.59687805 18.44970703 C20.96422562 19.81153956 20.96422562 19.81153956 22.35919636 21.20088387 C24.86031439 23.69210949 27.35839189 26.18636365 29.8559047 28.68120289 C32.56100545 31.38236287 35.26891838 34.08070148 37.97639465 36.77947998 C44.49402085 43.27746185 51.00690741 49.780184 57.51917651 56.28353405 C60.59198005 59.35194061 63.66526596 62.41986395 66.73848534 65.487854 C76.96031592 75.69269517 87.18090019 85.89878214 97.39787006 96.10848999 C100.04136022 98.75007058 102.68485579 101.39164575 105.32836914 104.03320312 C105.98531905 104.6896693 106.64226896 105.34613547 107.31912645 106.02249455 C117.97803227 116.6730874 128.64543791 127.31512453 139.31639168 137.95364499 C150.28873542 148.89291193 161.2535292 159.83970038 172.21094483 170.79392052 C178.35682137 176.9376341 184.50593509 183.07802863 190.66350746 189.21002197 C195.90230976 194.42711007 201.13422356 199.65098482 206.35731874 204.88380003 C209.02025968 207.55128158 211.68630041 210.21545321 214.36121368 212.87093353 C217.26444013 215.7532498 220.15184132 218.65092637 223.03804016 221.55029297 C223.88044528 222.38172884 224.7228504 223.21316471 225.59078294 224.06979561 C234.68451234 233.26393951 238.30169763 241.00875896 238.31469727 253.85961914 C238.03835073 268.29995226 227.42723642 277.87692235 217.74610901 287.5145874 C216.83514039 288.42938157 215.92417176 289.34417574 214.98559803 290.28669095 C212.4787663 292.80373556 209.96581538 295.31458908 207.45172632 297.82438207 C204.73302309 300.54060591 202.0200885 303.26258162 199.30636597 305.98377991 C193.99828762 311.30457201 188.68478067 316.61991019 183.36916966 321.93317595 C179.04810771 326.25245148 174.72882271 330.5734963 170.41077995 334.8957901 C169.79513261 335.51203263 169.17948527 336.12827517 168.54518194 336.76319171 C167.29434637 338.01523909 166.04351196 339.26728763 164.79267871 340.51933733 C153.07775264 352.24512533 141.35633132 363.96440366 129.63292199 375.6817092 C118.91372558 386.3957331 108.20277314 397.11795557 97.49566782 407.84406158 C86.49027499 418.86883411 75.47933044 429.88803343 64.46236461 440.90124154 C58.28168556 447.08000934 52.10322138 453.26095334 45.93057442 459.44774628 C40.67798083 464.71225599 35.42016024 469.9714762 30.1555552 475.22397533 C27.47129075 477.90235387 24.78947149 480.58306325 22.11415291 483.27038002 C19.21116717 486.18623325 16.29664392 489.09027716 13.38087463 491.99334717 C12.54127073 492.84032535 11.70166683 493.68730354 10.83662039 494.55994773 C2.37145633 502.94773496 -5.46039343 508.41467233 -17.75 508.375 C-39.493348 508.16945354 -53.4090172 487.74665939 -67.73520494 473.42483783 C-70.38777966 470.77413628 -73.04319292 468.12628055 -75.69818115 465.47799683 C-81.48142088 459.70824189 -87.26096938 453.93479923 -93.03968 448.16050863 C-96.65278184 444.55018228 -100.26661491 440.94058848 -103.88057327 437.33111954 C-113.90406057 427.31980494 -123.9266149 417.30755841 -133.94571495 407.29185295 C-134.9042276 406.33366965 -134.9042276 406.33366965 -135.88210414 405.35612912 C-136.52253284 404.71591869 -137.16296154 404.07570826 -137.82279718 403.41609752 C-139.12030724 402.11903091 -140.41781886 400.82196585 -141.71533203 399.52490234 C-142.35892617 398.88152963 -143.00252031 398.23815692 -143.6656173 397.57528807 C-154.11171149 387.1331484 -164.56455249 376.69779027 -175.02028827 366.26530562 C-185.77727568 355.53204526 -196.52861544 344.79315469 -207.27432883 334.04860699 C-213.29911378 328.02473727 -219.32627612 322.00329042 -225.35969162 315.98806381 C-230.49152311 310.87165056 -235.61816192 305.75010421 -240.73816459 300.62185274 C-243.34781555 298.00830336 -245.95979703 295.39720446 -248.57842636 292.79264832 C-251.42152749 289.96468738 -254.25277904 287.12514563 -257.08309937 284.28439331 C-257.90566361 283.46988547 -258.72822785 282.65537763 -259.57571828 281.81618774 C-268.2247423 273.09255478 -274.41292441 264.93495599 -274.375 252.25 C-274.24630654 234.90212129 -263.1489108 225.9991679 -251.55029297 214.40312195 C-250.18846044 213.03577438 -250.18846044 213.03577438 -248.79911613 211.64080364 C-246.30789051 209.13968561 -243.81363635 206.64160811 -241.31879711 204.1440953 C-238.61763713 201.43899455 -235.91929852 198.73108162 -233.22052002 196.02360535 C-226.72253815 189.50597915 -220.219816 182.99309259 -213.71646595 176.48082349 C-210.64805939 173.40801995 -207.58013605 170.33473404 -204.512146 167.26151466 C-194.30730483 157.03968408 -184.10121786 146.81909981 -173.89151001 136.60212994 C-171.24992942 133.95863978 -168.60835425 131.31514421 -165.96679688 128.67163086 C-165.3103307 128.01468095 -164.65386453 127.35773104 -163.97750545 126.68087355 C-153.3269126 116.02196773 -142.68487547 105.35456209 -132.04635501 94.68360832 C-121.10708807 83.71126458 -110.16029962 72.7464708 -99.20607948 61.78905517 C-93.0623659 55.64317863 -86.92197137 49.49406491 -80.78997803 43.33649254 C-75.57288993 38.09769024 -70.34901518 32.86577644 -65.11619997 27.64268126 C-62.44871842 24.97974032 -59.78454679 22.31369959 -57.12906647 19.63878632 C-54.2467502 16.73555987 -51.34907363 13.84815868 -48.44970703 10.96195984 C-47.61827116 10.11955472 -46.78683529 9.2771496 -45.93020439 8.40921706 C-33.71317935 -3.67437887 -15.79750441 -9.54634318 0 0 Z " fill="#EF594E" transform="translate(274,4)"/>
<path d="M0 0 C1.3792572 1.39060974 1.3792572 1.39060974 3.00756836 3.36108398 C10.0740696 11.66381015 17.90335669 19.2852103 25.57006836 27.0300293 C27.57630286 29.05872104 29.57227426 31.09677728 31.56030273 33.14331055 C34.43863568 36.1061035 37.34484978 39.04001978 40.25390625 41.97265625 C41.14155167 42.89329361 42.02919708 43.81393097 42.94374084 44.76246643 C43.78158615 45.59761276 44.61943146 46.43275909 45.48266602 47.29321289 C46.57684593 48.40618492 46.57684593 48.40618492 47.69313049 49.54164124 C49.99192322 51.31368491 49.99192322 51.31368491 53.15570068 50.77783203 C55.49594159 50.13784512 57.61291645 49.44454224 59.82421875 48.46484375 C64.19650972 46.76098968 68.15230959 46.49926675 72.8125 46.5625 C73.59931152 46.57007324 74.38612305 46.57764648 75.19677734 46.58544922 C85.49179634 46.87512217 93.29227651 50.22704297 101 57 C101.60585938 57.50144531 102.21171875 58.00289062 102.8359375 58.51953125 C108.81228099 63.88258185 114.421451 72.75645875 115.17700195 80.91015625 C115.68288821 98.67865536 115.68288821 98.67865536 111.77734375 106.87109375 C110.81085839 109.51800089 111.01477479 110.37586123 112 113 C113.8192703 115.29514176 113.8192703 115.29514176 116.16503906 117.60083008 C117.49211884 118.95661919 117.49211884 118.95661919 118.8460083 120.33979797 C119.81860613 121.316981 120.79182702 122.29354422 121.765625 123.26953125 C122.76135234 124.27489965 123.75685291 125.28049269 124.75213623 126.28630066 C126.83838352 128.39049736 128.93072652 130.48841291 131.02685547 132.58276367 C133.71346706 135.26906984 136.37882316 137.97544705 139.03934097 140.6875658 C141.08802194 142.76957267 143.15016372 144.83783077 145.216362 146.90244102 C146.20518964 147.89481174 147.18914926 148.8920577 148.16809845 149.89417458 C149.5368934 151.29230835 150.92670694 152.66977115 152.31738281 154.04614258 C153.10268372 154.83571854 153.88798462 155.62529449 154.69708252 156.438797 C156.90569752 158.2854386 156.90569752 158.2854386 159.65956116 157.7931366 C161.86306082 157.04640646 164.05440998 156.29213726 166.23046875 155.46875 C175.59084259 152.29377314 187.31519058 152.47574816 196.5625 155.9375 C207.33539003 161.29385314 216.25305092 170.8961207 220.9375 182 C223.98462229 192.70301704 223.40258032 206.24978109 218 216 C211.44127498 226.36482452 202.15584815 235.13668135 190 238 C186.7667819 238.35948049 183.56439399 238.47466879 180.3125 238.5 C179.52891113 238.50644531 178.74532227 238.51289063 177.93798828 238.51953125 C167.3497782 238.2882408 157.06767991 234.05634937 149.3125 226.8125 C140.50681371 217.33259643 136.3093738 205.80666625 136.62890625 192.875 C137.21364118 188.3448431 138.62012769 184.1480379 140.125 179.84765625 C141.19581151 176.85924767 141.19581151 176.85924767 141 173 C139.23085939 170.64753774 139.23085939 170.64753774 136.77734375 168.32324219 C135.85638916 167.40258972 134.93543457 166.48193726 133.98657227 165.53338623 C132.97042602 164.53766693 131.95406346 163.54216835 130.9375 162.546875 C129.90529942 161.52213536 128.87397895 160.49650851 127.84350586 159.47003174 C125.12978853 156.77158225 122.40427402 154.08535977 119.67614746 151.40148926 C116.89407581 148.66034532 114.12330224 145.90783381 111.3515625 143.15625 C105.91205022 137.75962889 100.46002791 132.37587188 95 127 C89.555 128.485 89.555 128.485 84 130 C84 173.56 84 217.12 84 262 C88.95 263.485 88.95 263.485 94 265 C103.80228651 270.65731964 111.6090502 280.27379466 114.61328125 291.23828125 C116.22918884 302.77814658 116.43597384 314.90756066 110 325 C104.68094895 331.91572822 98.83110409 337.82 90.9375 341.6875 C89.68259766 342.31205078 89.68259766 342.31205078 88.40234375 342.94921875 C79.67125516 346.7681827 66.91224688 346.42058348 57.9375 343.4375 C47.35066026 338.80778109 38.21166134 330.0415672 33 319.75 C29.27807064 309.93419987 28.98052745 296.18608038 32.5625 286.25 C38.29694606 274.94264157 47.23585935 266.64806956 59 262 C59.99 262 60.98 262 62 262 C62 218.44 62 174.88 62 130 C60.02 129.67 58.04 129.34 56 129 C45.46807053 123.90096787 37.36985628 115.87186465 33 105 C32.55333984 103.98873047 32.55333984 103.98873047 32.09765625 102.95703125 C27.73255407 91.91352389 29.92337779 81.72364477 34 71 C34.27927841 70.39315369 34.55855682 69.78630737 34.84629822 69.16107178 C35.25263111 66.78608662 35.25263111 66.78608662 33.18409729 64.58282471 C31.82175209 63.23713409 31.82175209 63.23713409 30.43188477 61.86425781 C29.68595566 61.11723351 29.68595566 61.11723351 28.92495728 60.3551178 C27.27534694 58.70899591 25.60872305 57.08129405 23.94140625 55.453125 C22.79545962 54.31650198 21.65061067 53.17877127 20.50682068 52.03997803 C17.49110839 49.04337088 14.46068393 46.06207836 11.42700195 43.0836792 C8.33492647 40.04271993 5.25692965 36.98758478 2.17773438 33.93359375 C-3.86778353 27.94172558 -9.92890945 21.96595539 -16 16 C-14.66579335 13.23738759 -13.41915936 11.16373874 -11.25 8.984375 C-10.7240625 8.45585938 -10.198125 7.92734375 -9.65625 7.3828125 C-9.1096875 6.84398438 -8.563125 6.30515625 -8 5.75 C-7.4534375 5.19570312 -6.906875 4.64140625 -6.34375 4.0703125 C-2.2533867 0 -2.2533867 0 0 0 Z " fill="#FEFDFD" transform="translate(183,60)"/>
<path d="M0 0 C1 2 1 2 0.46875 3.84765625 C-4.01971953 14.10960069 -11.39953088 21.69548858 -19.25389099 29.5145874 C-20.62034393 30.88677866 -20.62034393 30.88677866 -22.01440197 32.28669095 C-24.5212337 34.80373556 -27.03418462 37.31458908 -29.54827368 39.82438207 C-32.26697691 42.54060591 -34.9799115 45.26258162 -37.69363403 47.98377991 C-43.00171238 53.30457201 -48.31521933 58.61991019 -53.63083034 63.93317595 C-57.95189229 68.25245148 -62.27117729 72.5734963 -66.58922005 76.8957901 C-67.20486739 77.51203263 -67.82051473 78.12827517 -68.45481806 78.76319171 C-69.70565363 80.01523909 -70.95648804 81.26728763 -72.20732129 82.51933733 C-83.92224736 94.24512533 -95.64366868 105.96440366 -107.36707801 117.6817092 C-118.08627442 128.3957331 -128.79722686 139.11795557 -139.50433218 149.84406158 C-150.50972501 160.86883411 -161.52066956 171.88803343 -172.53763539 182.90124154 C-178.71831444 189.08000934 -184.89677862 195.26095334 -191.06942558 201.44774628 C-196.32201917 206.71225599 -201.57983976 211.9714762 -206.8444448 217.22397533 C-209.52870925 219.90235387 -212.21052851 222.58306325 -214.88584709 225.27038002 C-217.78883283 228.18623325 -220.70335608 231.09027716 -223.61912537 233.99334717 C-224.45872927 234.84032535 -225.29833317 235.68730354 -226.16337961 236.55994773 C-234.62854367 244.94773496 -242.46039343 250.41467233 -254.75 250.375 C-276.493348 250.16945354 -290.4090172 229.74665939 -304.73520494 215.42483783 C-307.38777966 212.77413628 -310.04319292 210.12628055 -312.69818115 207.47799683 C-318.48142088 201.70824189 -324.26096938 195.93479923 -330.03968 190.16050863 C-333.65278184 186.55018228 -337.26661491 182.94058848 -340.88057327 179.33111954 C-350.90406057 169.31980494 -360.9266149 159.30755841 -370.94571495 149.29185295 C-371.9042276 148.33366965 -371.9042276 148.33366965 -372.88210414 147.35612912 C-373.52253284 146.71591869 -374.16296154 146.07570826 -374.82279718 145.41609752 C-376.12030724 144.11903091 -377.41781886 142.82196585 -378.71533203 141.52490234 C-379.68072324 140.55984328 -379.68072324 140.55984328 -380.6656173 139.57528807 C-391.11171149 129.1331484 -401.56455249 118.69779027 -412.02028827 108.26530562 C-422.77727568 97.53204526 -433.52861544 86.79315469 -444.27432883 76.04860699 C-450.29911378 70.02473727 -456.32627612 64.00329042 -462.35969162 57.98806381 C-467.49152311 52.87165056 -472.61816192 47.75010421 -477.73816459 42.62185274 C-480.34781555 40.00830336 -482.95979703 37.39720446 -485.57842636 34.79264832 C-488.42152749 31.96468738 -491.25277904 29.12514563 -494.08309937 26.28439331 C-495.31694573 25.06263155 -495.31694573 25.06263155 -496.57571828 23.81618774 C-509 11.28473063 -509 11.28473063 -509 5 C-505.79264063 6.38295441 -503.9817062 7.90470103 -501.77379513 10.59326839 C-497.93346188 15.1252496 -493.82426234 19.31518922 -489.61927795 23.50770569 C-488.80223103 24.3263126 -487.98518412 25.14491951 -487.1433782 25.98833269 C-484.42225123 28.71342815 -481.69758811 31.43495926 -478.97290039 34.15649414 C-477.01394747 36.11625315 -475.0557395 38.07675593 -473.0974884 40.03721619 C-468.34066721 44.79847132 -463.58116193 49.55703447 -458.82067139 54.31462056 C-454.94988364 58.18314493 -451.08007912 62.05265032 -447.21096611 65.92284966 C-446.65915207 66.47481692 -446.10733804 67.02678419 -445.53880237 67.59547774 C-444.41761673 68.71698312 -443.29643332 69.83849074 -442.17525213 70.96000057 C-431.67523086 81.46286967 -421.17215329 91.96267811 -410.66801893 102.4614334 C-401.66569566 111.45928927 -392.66599738 120.45976368 -383.66821289 129.4621582 C-373.20562468 139.93010448 -362.74140772 150.39641818 -352.27460665 160.86015218 C-351.15735223 161.97708807 -350.04009989 163.09402604 -348.92284966 164.21096611 C-348.37321821 164.76044328 -347.82358677 165.30992044 -347.25729983 165.87604843 C-343.39430024 169.73818656 -339.53245819 173.60147979 -335.67106819 177.46522713 C-330.96181678 182.17729042 -326.2507729 186.88755292 -321.53746039 191.59555418 C-319.13522513 193.99517115 -316.73405547 196.39582845 -314.33451843 198.79814529 C-311.72789104 201.40751343 -309.11818958 204.01376877 -306.50770569 206.61927795 C-305.7575936 207.37162077 -305.00748151 208.12396358 -304.23463875 208.89910465 C-300.17444431 212.94435048 -296.02172573 216.81706462 -291.67062753 220.54854578 C-289.67255803 222.28448414 -287.82210878 224.12400961 -286 226.04296875 C-285.34 226.72423828 -284.68 227.40550781 -284 228.10742188 C-282.66079997 229.50024222 -281.32749466 230.8987532 -280 232.30273438 C-272.72516996 239.76938122 -265.8195998 243.0924918 -255.375 243.3125 C-238.53276219 243.10327965 -229.54333127 231.69774123 -218.32046509 220.45417786 C-217.40002737 219.5360057 -216.47958966 218.61783354 -215.53125989 217.67183799 C-213.00539529 215.15202674 -210.48259633 212.62916658 -207.96035028 210.10573399 C-205.22873211 207.37391019 -202.49424597 204.64495953 -199.76016235 201.91560364 C-194.41723811 196.58094861 -189.07705931 191.24355365 -183.73798855 185.90504221 C-179.39877453 181.56630469 -175.05876897 177.22836053 -170.71821213 172.89096642 C-158.39966463 160.58121173 -146.08320162 148.2693769 -133.76942547 135.95484928 C-133.10704338 135.29242724 -132.4446613 134.6300052 -131.76220703 133.94750977 C-131.09901358 133.28427543 -130.43582013 132.6210411 -129.7525299 131.93770876 C-118.98671169 121.17148343 -108.21590395 110.41026505 -97.4428447 99.6512858 C-86.36912847 88.59192812 -75.29913973 77.52885145 -64.23303258 66.46187991 C-58.02476505 60.25328045 -51.8149678 54.04622903 -45.60115433 47.8431797 C-40.31591186 42.56703487 -35.03413738 37.2874487 -29.7568403 32.00335626 C-27.06518743 29.30843578 -24.371949 26.61515203 -21.67433167 23.92620087 C-18.74999172 21.01115921 -15.83346142 18.08842671 -12.91763306 15.16487122 C-12.0645332 14.31691492 -11.21143335 13.46895863 -10.33248198 12.59530669 C-6.3767399 8.61630395 -2.87156419 4.83128812 0 0 Z " fill="#DF4C40" transform="translate(511,262)"/>
<path d="M0 0 C3.18963306 1.40813427 5.3280734 3.08046668 7.78387451 5.54336548 C8.8901696 6.64553658 8.8901696 6.64553658 10.01881409 7.76997375 C10.81794724 8.57629745 11.61708038 9.38262115 12.44042969 10.21337891 C13.28957443 11.0622316 14.13871918 11.91108429 15.01359558 12.78565979 C17.33717119 15.11038921 19.65625126 17.43949345 21.97340679 19.77061892 C24.39749135 22.20721389 26.82724848 24.63813871 29.25640869 27.06967163 C33.85374743 31.67322422 38.44596453 36.28185087 43.03636193 40.89232385 C48.26335793 46.1416818 53.49604043 51.38535552 58.72920752 56.6285603 C69.49247673 67.41272936 80.24858507 78.20401184 91 89 C87.24629068 90.25123644 85.797505 89.145022 82.26513672 87.72949219 C78.39113873 86.48186274 74.59909517 86.56635697 70.5625 86.625 C69.76779297 86.61339844 68.97308594 86.60179687 68.15429688 86.58984375 C63.06365314 86.61469636 58.8779504 87.44562227 54.12084961 89.25927734 C51.6240081 90.131318 49.65818147 90.8050227 47 91 C44.60769653 89.36959839 44.60769653 89.36959839 42.10205078 86.87841797 C41.64129654 86.42817764 41.1805423 85.97793732 40.70582581 85.51405334 C39.18687566 84.02151284 37.69092956 82.50808258 36.1953125 80.9921875 C35.14718788 79.94810421 34.09817393 78.904913 33.04830933 77.86257935 C30.85140688 75.67452471 28.66572772 73.47598007 26.48730469 71.26953125 C23.69288018 68.44092045 20.87238055 65.64010282 18.04292488 62.84658623 C15.87191424 60.69724913 13.71538881 58.53383469 11.56298447 56.36587906 C10.52835454 55.32724439 9.48924276 54.29305463 8.44565201 53.26342392 C6.98928108 51.8222813 5.55351573 50.36332113 4.12158203 48.89794922 C3.29949249 48.07108612 2.47740295 47.24422302 1.63040161 46.39230347 C0 44 0 44 0.19624329 41.32684326 C0.9543496 39.13215606 1.71128065 36.94434845 2.53515625 34.7734375 C4.15785488 29.99334903 4.49921449 25.64701665 4.4375 20.625 C4.43427734 19.80153076 4.43105469 18.97806152 4.42773438 18.12963867 C4.27761945 11.54334629 2.98144325 5.92295646 0 0 Z " fill="#E05349" transform="translate(293,128)"/>
<path d="M0 0 C6.93530011 5.68491697 13.26222574 12.11364976 19.59687805 18.44970703 C20.5084431 19.35759539 21.42000814 20.26548374 22.35919636 21.20088387 C24.86031439 23.69210949 27.35839189 26.18636365 29.8559047 28.68120289 C32.56100545 31.38236287 35.26891838 34.08070148 37.97639465 36.77947998 C44.49402085 43.27746185 51.00690741 49.780184 57.51917651 56.28353405 C60.59198005 59.35194061 63.66526596 62.41986395 66.73848534 65.487854 C76.96031592 75.69269517 87.18090019 85.89878214 97.39787006 96.10848999 C100.04136022 98.75007058 102.68485579 101.39164575 105.32836914 104.03320312 C105.98531905 104.6896693 106.64226896 105.34613547 107.31912645 106.02249455 C117.97803227 116.6730874 128.64543791 127.31512453 139.31639168 137.95364499 C150.28873542 148.89291193 161.2535292 159.83970038 172.21094483 170.79392052 C178.35682137 176.9376341 184.50593509 183.07802863 190.66350746 189.21002197 C195.90230976 194.42711007 201.13422356 199.65098482 206.35731874 204.88380003 C209.02025968 207.55128158 211.68630041 210.21545321 214.36121368 212.87093353 C217.26444013 215.7532498 220.15184132 218.65092637 223.03804016 221.55029297 C223.88044528 222.38172884 224.7228504 223.21316471 225.59078294 224.06979561 C232.33092605 230.88436452 237.89749126 237.84947567 238.0625 247.75 C238.041875 248.8225 238.02125 249.895 238 251 C236.94741104 248.93155437 235.93950719 246.86242617 235.00512487 244.73743743 C231.90934652 237.95255572 227.92180703 233.2198422 222.63200378 228.02400208 C221.7921644 227.179185 220.95232502 226.33436793 220.08703595 225.46395034 C217.77395472 223.14217465 215.45011561 220.83186014 213.12108839 218.52610123 C210.60406795 216.02873082 208.10162529 213.51682345 205.5973053 211.00672913 C200.69724204 206.09986724 195.78409643 201.20631119 190.86647054 196.31705765 C185.13411747 190.6166389 179.41559049 184.90243274 173.69771711 179.18749615 C163.49162693 168.9874638 153.27407521 158.79899254 143.04956055 148.61743164 C133.13976451 138.7492309 123.23662018 128.8744251 113.34155273 118.99145508 C112.73206849 118.38271905 112.12258424 117.77398301 111.49463078 117.14680044 C109.04438433 114.69952869 106.59415658 112.25223823 104.14396031 109.80491625 C93.55835241 99.23206236 82.96726608 88.66469718 72.37545946 78.09805366 C70.66483986 76.39140963 68.95434787 74.68463778 67.24388671 72.97783494 C61.25171173 66.99871305 55.2578685 61.02127768 49.25946804 55.04840068 C46.78036686 52.579838 44.30197732 50.11057371 41.82568741 47.63919067 C39.13573836 44.95549072 36.44275314 42.2748747 33.74894714 39.595047 C32.97412512 38.82072274 32.19930311 38.04639847 31.40100163 37.24860984 C27.279372 33.15561478 23.07212235 29.22542952 18.66214639 25.44391936 C16.66689449 23.71062868 14.81944024 21.87318002 13 19.95703125 C12.01 18.93512695 12.01 18.93512695 11 17.89257812 C9.66079997 16.49975778 8.32749466 15.1012468 7 13.69726562 C-0.27483004 6.23061878 -7.1804002 2.9075082 -17.625 2.6875 C-18.77226562 2.65011719 -19.91953125 2.61273437 -21.1015625 2.57421875 C-32.93080654 3.86619029 -39.66175088 10.8501378 -47.5703125 18.984375 C-48.74296997 20.16824333 -49.91697431 21.35077891 -51.09225464 22.53204346 C-54.16017797 25.62271594 -57.20964016 28.73098079 -60.25543213 31.84344482 C-63.37534857 35.02508532 -66.51263266 38.18950054 -69.6484375 41.35546875 C-75.78261761 47.55371557 -81.89737559 53.77068248 -88 60 C-89.32 58.68 -90.64 57.36 -92 56 C-86.81340148 49.73842795 -81.17557183 43.97690989 -75.44921875 38.2109375 C-74.94742411 37.70506733 -74.44562946 37.19919716 -73.92862892 36.67799759 C-71.27575322 34.00439907 -68.61971084 31.333992 -65.96118164 28.66601562 C-63.23618387 25.9299365 -60.52307816 23.18237074 -57.81242657 20.43208885 C-55.70600825 18.29939135 -53.59062341 16.17575594 -51.47281837 14.05437088 C-50.46923631 13.04595814 -49.46899637 12.03420651 -48.47238731 11.01890182 C-35.51223254 -2.16929594 -17.62279033 -10.64935321 0 0 Z " fill="#F3776D" transform="translate(274,4)"/>
<path d="M0 0 C1.98 1.98 1.98 1.98 4 4 C3.59380999 4.33587191 3.18761997 4.67174381 2.76912117 5.01779366 C-4.80917961 11.45972629 -11.73597474 18.5799611 -18.76611328 25.60498047 C-20.2548862 27.08911873 -21.74385426 28.57306126 -23.23300171 30.05682373 C-27.26012299 34.07088699 -31.28395972 38.08822648 -35.30678415 42.10659552 C-37.82309306 44.61996481 -40.33998419 47.13274963 -42.85705185 49.64535904 C-50.74129279 57.51594643 -58.62354379 65.38851862 -66.50289547 73.26400077 C-75.58285535 82.33947606 -84.66932319 91.40836824 -93.76149952 100.47160423 C-100.80225003 107.49072377 -107.83721118 114.51561154 -114.86782253 121.54488671 C-119.06173685 125.73775463 -123.25802948 129.9281734 -127.46036148 134.11260605 C-131.41176337 138.04750148 -135.35590859 141.98952962 -139.29468155 145.93706512 C-140.73761879 147.38077118 -142.18310404 148.82193597 -143.63137054 150.26029587 C-156.5066513 162.37962155 -156.5066513 162.37962155 -163.875 178.0625 C-164.21144531 179.47208984 -164.21144531 179.47208984 -164.5546875 180.91015625 C-164.70164063 181.59980469 -164.84859375 182.28945313 -165 183 C-165.33 183 -165.66 183 -166 183 C-166.6393115 174.65343316 -165.61778063 167.58747787 -160.31069279 160.8578968 C-153.08420318 152.94603027 -145.51898475 145.38546874 -137.93334961 137.81982422 C-136.42443708 136.31119424 -134.91574565 134.80234308 -133.40725708 133.29328918 C-129.33784113 129.22358789 -125.26536294 125.15696376 -121.19230342 121.09090948 C-116.92641472 116.83129827 -112.66338291 112.56882977 -108.40003967 108.30667114 C-100.33813005 100.24786193 -92.2736761 92.19160388 -84.20829159 84.13627255 C-75.02126726 74.96044955 -65.83710324 65.7817659 -56.65317142 56.60284781 C-37.77194876 37.73206029 -18.88715953 18.86484538 0 0 Z " fill="#F3847C" transform="translate(166,75)"/>
</svg>
